<?xml version="1.0" encoding="UTF-8" standalone="no"?>
<!-- Created with Inkscape (http://www.inkscape.org/) -->

<svg
   width="22.913588mm"
   height="26.458334mm"
   viewBox="0 0 22.913588 26.458334"
   version="1.1"
   id="svg1"
   xml:space="preserve"
   xmlns="http://www.w3.org/2000/svg"
   xmlns:svg="http://www.w3.org/2000/svg"><defs
     id="defs1" /><g
     id="layer1"
     transform="translate(-79.42061,-54.824648)"><path
       style="fill:#eeaa66;fill-opacity:1;stroke:#ffffff;stroke-width:0.264999;stroke-dasharray:none;stroke-opacity:1"
       id="path4"
       d="m 87.931062,58.046155 7.917585,0 3.958792,6.85683 -3.958792,6.856829 -7.917585,0 -3.958792,-6.856829 z"
       transform="matrix(0,1.6391838,-1.6391838,0,197.26533,-82.570546)" /><path
       d="m 90.8774,60.488385 c -1.096369,0 -1.984369,0.888007 -1.984369,1.984374 0,0.441523 0.143813,0.848319 0.386963,1.180703 -0.967388,0.555626 -1.6272,1.592461 -1.6272,2.788048 0,1.00707 0.466331,1.904999 1.195594,2.495351 -1.488282,0.525858 -3.67605,2.753319 -3.67605,6.682383 h 11.410143 c 0,-3.929064 -2.187769,-6.156525 -3.67605,-6.682383 0.729263,-0.590352 1.195594,-1.488281 1.195594,-2.495351 0,-1.195587 -0.659813,-2.232422 -1.6272,-2.788048 0.243094,-0.332384 0.386962,-0.73918 0.386962,-1.180703 0,-1.096367 -0.888018,-1.984374 -1.984387,-1.984374 z"
       style="display:inline;opacity:1;fill:#ffffff;fill-opacity:1;fill-rule:nonzero;stroke:#000000;stroke-width:0.744141;stroke-linecap:round;stroke-linejoin:miter;stroke-miterlimit:4;stroke-dasharray:none;stroke-opacity:1"
       id="path1" /></g></svg>
